<svg width="24" height="36" viewBox="0 0 24 36" fill="none" xmlns="http://www.w3.org/2000/svg">
<path d="M11.063 13.456C11.3432 13.2782 11.6682 13.1838 12 13.1838C12.3319 13.1838 12.6568 13.2782 12.937 13.456L21.32 18.772C21.5689 18.9301 21.7738 19.1484 21.9157 19.4068C22.0577 19.6652 22.1321 19.9552 22.1321 20.25C22.1321 20.5448 22.0577 20.8348 21.9157 21.0932C21.7738 21.3516 21.5689 21.5699 21.32 21.728L12.937 27.044C12.6568 27.2218 12.3319 27.3162 12 27.3162C11.6682 27.3162 11.3432 27.2218 11.063 27.044L2.68003 21.728C2.43119 21.5699 2.22628 21.3516 2.08432 21.0932C1.94235 20.8348 1.86792 20.5448 1.86792 20.25C1.86792 19.9552 1.94235 19.6652 2.08432 19.4068C2.22628 19.1484 2.43119 18.9301 2.68003 18.772L11.063 13.456ZM12.134 14.723C12.094 14.6976 12.0475 14.6841 12 14.6841C11.9526 14.6841 11.9061 14.6976 11.866 14.723L3.48303 20.039C3.44751 20.0616 3.41826 20.0927 3.398 20.1296C3.37774 20.1665 3.36711 20.2079 3.36711 20.25C3.36711 20.2921 3.37774 20.3335 3.398 20.3704C3.41826 20.4073 3.44751 20.4384 3.48303 20.461L11.866 25.777C11.9061 25.8024 11.9526 25.816 12 25.816C12.0475 25.816 12.094 25.8024 12.134 25.777L20.517 20.461C20.5525 20.4384 20.5818 20.4073 20.6021 20.3704C20.6223 20.3335 20.6329 20.2921 20.6329 20.25C20.6329 20.2079 20.6223 20.1665 20.6021 20.1296C20.5818 20.0927 20.5525 20.0616 20.517 20.039L12.134 14.723Z" fill="#27A5FF"/>
<path d="M1.86706 24.324C1.91978 24.2408 1.98838 24.1688 2.06892 24.1121C2.14947 24.0554 2.2404 24.0152 2.33651 23.9936C2.43262 23.9721 2.53203 23.9697 2.62906 23.9866C2.7261 24.0035 2.81886 24.0393 2.90206 24.092L11.8661 29.777C11.9061 29.8024 11.9526 29.8159 12.0001 29.8159C12.0475 29.8159 12.094 29.8024 12.1341 29.777L21.0981 24.092C21.1812 24.0392 21.274 24.0033 21.3711 23.9864C21.4682 23.9695 21.5676 23.9718 21.6638 23.9933C21.7599 24.0148 21.8509 24.055 21.9315 24.1117C22.0121 24.1683 22.0808 24.2403 22.1336 24.3235C22.1863 24.4067 22.2222 24.4995 22.2392 24.5965C22.2561 24.6936 22.2538 24.793 22.2323 24.8892C22.2108 24.9854 22.1705 25.0763 22.1139 25.1569C22.0572 25.2376 21.9853 25.3062 21.9021 25.359L12.9371 31.044C12.6569 31.2218 12.3319 31.3162 12.0001 31.3162C11.6682 31.3162 11.3432 31.2218 11.0631 31.044L2.09806 25.359C1.9302 25.2524 1.81158 25.0834 1.76826 24.8893C1.72494 24.6952 1.76048 24.4919 1.86706 24.324Z" fill="#27A5FF"/>
<path d="M1.86706 28.324C1.91978 28.2408 1.98838 28.1688 2.06892 28.1121C2.14947 28.0555 2.2404 28.0152 2.33651 27.9936C2.43262 27.9721 2.53203 27.9697 2.62906 27.9866C2.7261 28.0035 2.81886 28.0393 2.90206 28.092L11.8661 33.777C11.9061 33.8024 11.9526 33.816 12.0001 33.816C12.0475 33.816 12.094 33.8024 12.1341 33.777L21.0981 28.092C21.2661 27.9854 21.4696 27.9499 21.6638 27.9933C21.8579 28.0367 22.0269 28.1555 22.1336 28.3235C22.2402 28.4915 22.2757 28.695 22.2323 28.8892C22.1889 29.0834 22.0701 29.2524 21.9021 29.359L12.9371 35.044C12.6569 35.2218 12.3319 35.3162 12.0001 35.3162C11.6682 35.3162 11.3432 35.2218 11.0631 35.044L2.09806 29.359C1.9302 29.2524 1.81158 29.0834 1.76826 28.8893C1.72494 28.6952 1.76048 28.4919 1.86706 28.324Z" fill="#27A5FF"/>
<path d="M18.655 10.405C18.5144 10.5454 18.3238 10.6243 18.125 10.6243C17.9263 10.6243 17.7356 10.5454 17.595 10.405L12.625 5.43495V19.875C12.625 20.0739 12.546 20.2646 12.4054 20.4053C12.2647 20.5459 12.0739 20.625 11.875 20.625C11.6761 20.625 11.4853 20.5459 11.3447 20.4053C11.204 20.2646 11.125 20.0739 11.125 19.875V5.43495L6.15502 10.405C6.06335 10.5037 5.94675 10.5758 5.8175 10.6139C5.68825 10.6519 5.55114 10.6543 5.42062 10.621C5.29009 10.5876 5.17098 10.5196 5.07585 10.4242C4.98071 10.3288 4.91305 10.2096 4.88002 10.079C4.8466 9.94857 4.84894 9.8116 4.88677 9.68244C4.9246 9.55328 4.99654 9.43669 5.09502 9.34495L11.345 3.09495C11.4856 2.9545 11.6763 2.87561 11.875 2.87561C12.0738 2.87561 12.2644 2.9545 12.405 3.09495L18.655 9.34495C18.7955 9.48558 18.8744 9.6762 18.8744 9.87495C18.8744 10.0737 18.7955 10.2643 18.655 10.405Z" fill="#27A5FF"/>
</svg>
